<svg xmlns="http://www.w3.org/2000/svg" width="40.504" height="21.712" viewBox="0 0 40.504 21.712">
  <path id="_008910f99c" data-name="008910f99c" d="M68.29,207.638h.076c-.014.1.055.149.112.207,1.519,1.54,3.071,3.047,4.573,4.6,1.374,1.425,2.806,2.791,4.18,4.216,1.466,1.52,2.986,2.988,4.463,4.5,2.2,2.25,4.432,4.468,6.651,6.7.009.009.019.017.027.027.027.033.083.057.07.105s-.081.049-.13.05c-.424.01-.847-.008-1.271.033s-.834.018-1.252.034c-.86.033-1.72.047-2.58.082-.753.031-1.507.029-2.261.042a.748.748,0,0,0-.114.006c-.035.006-.048.037-.055.07H79.294a1.3,1.3,0,0,0-.324-.412c-.6-.635-1.244-1.231-1.836-1.875-.549-.6-1.151-1.144-1.7-1.739-.612-.659-1.276-1.27-1.889-1.931-.534-.576-1.115-1.107-1.65-1.685-.6-.651-1.26-1.25-1.862-1.9-.524-.568-1.113-1.075-1.62-1.661-.064-.074-.112-.055-.172.005-.237.238-.484.465-.726.7-.844.805-1.649,1.65-2.493,2.458-1.017.974-2,1.983-3.008,2.965-1.3,1.266-2.581,2.55-3.87,3.826a12.16,12.16,0,0,1-.993,1.01,76.334,76.334,0,0,0-8.194.245c.131-.042,9.244-10.605,9.338-10.7,1.659-1.65,3.3-3.316,4.983-4.946,1.242-1.206,2.43-2.467,3.691-3.654.416-.391.81-.805,1.213-1.209C68.225,207.758,68.289,207.718,68.29,207.638ZM86,214.944q0,2.351,0,4.7c0,.06.035.143-.024.176s-.116-.031-.169-.064l-5.3-3.294c-.355-.22-.705-.447-1.064-.661-.107-.064-.1-.148-.1-.243q0-2.1,0-4.206c0-.381,0-.761,0-1.142,0-.129.035-.177.171-.177q3.159.005,6.319,0c.172,0,.177.082.177.21Q85.994,212.593,86,214.944Z" transform="translate(-48.442 -207.138)" fill="#3f3f3f" stroke="#404040" stroke-width="1"/>
</svg>
