<svg xmlns="http://www.w3.org/2000/svg" width="36.185" height="31.5" viewBox="0 0 36.185 31.5">
  <path id="_015001e29c" data-name="015001e29c" d="M79.867,53.366a7.893,7.893,0,0,1,3.169.36A12.779,12.779,0,0,1,85.8,54.976a8.724,8.724,0,0,1,1.959,1.586,2.379,2.379,0,0,1,.749,1.418.648.648,0,0,1-.576.7q-.576.12-1.44.216a14.052,14.052,0,0,0-1.9.36,4.312,4.312,0,0,0-1.959,1.177A12.127,12.127,0,0,0,81.461,61.7q-.557.7-1.114,1.346a14.7,14.7,0,0,1-1.152,1.2,4.347,4.347,0,0,1-1.287.841,7.991,7.991,0,0,1-.845.288,2.578,2.578,0,0,1-1.056.072A2.8,2.8,0,0,1,74.855,65a3.8,3.8,0,0,1-1.133-1.3,6.4,6.4,0,0,0-.6,1.37q-.25.793-.442,1.706t-.327,1.9q-.134.985-.211,1.85-.077.721-.115,1.8t-.019,2.139q.019,1.057.1,1.946a4.908,4.908,0,0,0,.23,1.274,1.863,1.863,0,0,1,.192.721.68.68,0,0,1-.192.457.958.958,0,0,1-.73.216,1.167,1.167,0,0,1-.826-.216.65.65,0,0,1-.211-.457,1.185,1.185,0,0,1,.154-.673,4,4,0,0,0,.25-1.129,12.229,12.229,0,0,0,.038-1.394q-.019-.745-.058-1.514t-.038-1.49a24.485,24.485,0,0,0-1.191-2.6,19.127,19.127,0,0,0-1.268-2.018,4.916,4.916,0,0,1-.98,1.73,3.142,3.142,0,0,1-1.133.793,2.75,2.75,0,0,1-1.095.192,4.633,4.633,0,0,1-.9-.12,3.712,3.712,0,0,1-1.306-.553,15.22,15.22,0,0,1-1.229-.913q-.615-.5-1.248-1.081a10.7,10.7,0,0,0-1.287-1.009,3.776,3.776,0,0,0-2.055-.769,10.522,10.522,0,0,0-1.921.072,8.14,8.14,0,0,1-1.421.1q-.557-.024-.557-.649a3.126,3.126,0,0,1,.634-1.586,9.761,9.761,0,0,1,1.69-1.9,12.345,12.345,0,0,1,2.478-1.682,8.666,8.666,0,0,1,3-.937,8.572,8.572,0,0,1,4.014.312,5.755,5.755,0,0,1,2.5,1.706,5.269,5.269,0,0,1,1.133,2.547,7.806,7.806,0,0,1-.077,2.883,19.89,19.89,0,0,1,2.42,3.556,21.275,21.275,0,0,1,.96-4.758q.307-.817.576-1.394t.653-1.249a7.531,7.531,0,0,1-.634-2.98,6.041,6.041,0,0,1,.73-2.979,6.41,6.41,0,0,1,2.324-2.379,9.044,9.044,0,0,1,4.148-1.177h0ZM68.421,66.582a10.007,10.007,0,0,0-4.532-2.98,8.331,8.331,0,0,0-4.917.144q-.077,0-.038.024a.221.221,0,0,0,.115.024,15.17,15.17,0,0,1,2.266-.12,7.505,7.505,0,0,1,2.324.432,9.8,9.8,0,0,1,2.324,1.2,11.354,11.354,0,0,1,2.266,2.139l.192-.865Zm14.1-9.131a.22.22,0,0,0,.115-.024q.039-.024-.077-.024a7.58,7.58,0,0,0-5.07,1.081,12.881,12.881,0,0,0-3.995,4.157l.384.817a15.857,15.857,0,0,1,2.132-2.931A10.5,10.5,0,0,1,78.235,58.7a8.171,8.171,0,0,1,2.209-.937,10.9,10.9,0,0,1,2.074-.312ZM62.467,82.008q-.307-.337.192-.793a6.511,6.511,0,0,1,1.46-.937q.96-.481,2.17-.985t2.324-.889a.79.79,0,0,1,.787.024,2.685,2.685,0,0,1,.538.553,3.99,3.99,0,0,0,.615.649,1.942,1.942,0,0,0,2.113,0A5.878,5.878,0,0,0,73.3,79a4.136,4.136,0,0,1,.538-.529.819.819,0,0,1,.768-.072q1.114.385,2.343.913t2.209,1.033a6.951,6.951,0,0,1,1.479.961q.5.457.115.7a8.109,8.109,0,0,1-2.478,1.033,22.676,22.676,0,0,1-3.38.6,35.93,35.93,0,0,1-3.764.192,29.584,29.584,0,0,1-3.668-.216,18.543,18.543,0,0,1-3.073-.625,4.631,4.631,0,0,1-1.921-.985Z" transform="translate(-52.825 -52.834)" fill="#3f3f3f" stroke="#404040" stroke-width="1"/>
</svg>
