<svg id="Group_18" data-name="Group 18" xmlns="http://www.w3.org/2000/svg" width="39.588" height="31.531" viewBox="0 0 39.588 31.531">
  <path id="_0dfa57c08b" data-name="0dfa57c08b" d="M12.371,113.54A12.461,12.461,0,0,1,0,101.168V86.323a1.1,1.1,0,0,1,1.155-.99,1.127,1.127,0,0,1,1.155,1.155v14.845A10,10,0,0,0,12.371,111.4a10,10,0,0,0,10.062-10.062v-2.8a4.784,4.784,0,1,1,9.567,0v6.928a1.155,1.155,0,0,1-2.309,0V98.529a2.474,2.474,0,1,0-4.948,0v2.639A12.354,12.354,0,0,1,12.371,113.54Zm0,0,26.062-6.763a1.127,1.127,0,0,1-1.155-1.155V98.529A10,10,0,0,0,27.217,88.467,10.1,10.1,0,0,0,17.155,98.529v2.639a4.784,4.784,0,1,1-9.567,0V86.323a1.1,1.1,0,0,1,1.155-.99A1.239,1.239,0,0,1,9.9,86.488v14.845a2.474,2.474,0,0,0,4.948,0v-2.8a12.371,12.371,0,0,1,24.742,0v6.928a1.275,1.275,0,0,1-1.155,1.32Zm0,0" transform="translate(0 -82.008)" fill="#3f3f3f"/>
  <g id="Path_85" data-name="Path 85" fill="none">
    <path d="M4.89,0c2.7,0,4.89,1.688,4.89,3.769S7.591,7.539,4.89,7.539,0,5.851,0,3.769,2.19,0,4.89,0Z" stroke="none"/>
    <path d="M 4.890496253967285 2.000004768371582 C 3.236146450042725 2.000004768371582 1.999996185302734 2.934134483337402 1.999996185302734 3.769354581832886 C 1.999996185302734 4.604574680328369 3.236146450042725 5.538704872131348 4.890496253967285 5.538704872131348 C 6.544846534729004 5.538704872131348 7.780996322631836 4.604574680328369 7.780996322631836 3.769354581832886 C 7.780996322631836 2.934134483337402 6.544846534729004 2.000004768371582 4.890496253967285 2.000004768371582 M 4.890496253967285 4.76837158203125e-06 C 7.591445922851563 4.76837158203125e-06 9.780996322631836 1.687594413757324 9.780996322631836 3.769354581832886 C 9.780996322631836 5.851114749908447 7.591445922851563 7.538704395294189 4.890496253967285 7.538704395294189 C 2.18954610824585 7.538704395294189 -3.814697265625e-06 5.851114749908447 -3.814697265625e-06 3.769354581832886 C -3.814697265625e-06 1.687594413757324 2.18954610824585 4.76837158203125e-06 4.890496253967285 4.76837158203125e-06 Z" stroke="none" fill="#404040"/>
  </g>
  <g id="Ellipse_3" data-name="Ellipse 3" transform="translate(29.807 20.026)" fill="none" stroke="#404040" stroke-width="2">
    <ellipse cx="4.89" cy="3.769" rx="4.89" ry="3.769" stroke="none"/>
    <ellipse cx="4.89" cy="3.769" rx="3.89" ry="2.769" fill="none"/>
  </g>
</svg>
